<svg data-v-0dd9719b="" version="1.0" xmlns="http://www.w3.org/2000/svg" xmlns:xlink="http://www.w3.org/1999/xlink" width="100%" height="100%" viewBox="0 0 250.000000 250.000000" preserveAspectRatio="xMidYMid meet" color-interpolation-filters="sRGB" style="margin: 0;"> <rect data-v-0dd9719b="" x="0" y="0" width="100%" height="100%" fill="#ffffff" fill-opacity="0" class="background"></rect> <!----> <g data-v-0dd9719b="" class="iconmbgsvg" transform="translate(87.875,35.21842956542969)"><g fill="#ffffff" hollow-target="textNormalTran"><g opacity="1"><g><rect fill="#ffffff" fill-opacity="0" stroke-width="2" x="0" y="0" width="164.25000000000006" height="179.56314500612217" class="image-rect"></rect> <svg x="0" y="0" width="164.25000000000006" height="179.56314500612217" filtersec="colorsb308908767" class="image-svg-svg primary" style="overflow: visible;"><svg xmlns="http://www.w3.org/2000/svg" viewBox="0.016225814819335938 0 85.98377227783203 94"><g><g><path d="M73 68H47a21 21 0 0 1 0-42h26a13 13 0 0 0 0-26H47a47 47 0 0 0 0 94h26a13 13 0 0 0 0-26z" fill="#755be7"></path><circle cx="47" cy="47" r="13" fill="#ffa000" opacity=".6"></circle><circle cx="60" cy="47" r="13" fill="#ffa000" opacity=".8"></circle><circle cx="73" cy="47" r="13" fill="#ffa000"></circle></g></g></svg></svg> <!----></g></g> <g transform="translate(12.836166381835938,56.71281814575195)"><g data-gra="path-name" fill-rule="" class="tp-name" transform="translate(0,0)"><g transform="scale(1.5000000000000004)"><g><path d="M6.76-3.9L6.76-3.9Q5.85-3.9 5.07-4.23 4.29-4.55 3.74-5.13 3.19-5.72 2.99-6.53 2.79-7.35 3.06-8.26L3.06-8.26 7.41-40.69 46.73-40.69 46.09-34.45 18.66-34.45 15.54-10.14 39.84-10.14 42.97-12.61 41.73-3.9 6.76-3.9ZM54.73-40.69L69.75-40.69 67.86-29.51 80.99-40.69 95.29-40.69 74.1-21.97 92.82-3.9 77.87-3.9 65.97-16.38 64.09-3.9 52.26-3.9 56.62-38.22 54.73-40.69Z" transform="translate(-2.904893636703491, 40.689998626708984)"></path></g> <!----> <!----> <!----> <!----> <!----> <!----> <!----></g></g> <g data-gra="path-slogan" fill-rule="" class="tp-slogan" fill="#ffffff" transform="translate(39.148834228515625,60.185001373291016)"><!----> <!----> <g transform="scale(1, 1)"><g transform="scale(1)"><path d="M8.06-6.05L8.06-6.05L6.94-6.05Q6.52-7.78 4.55-7.83L4.55-7.83Q1.83-7.69 1.73-4.36L1.73-4.36Q1.73-0.80 4.59-0.80L4.59-0.80Q6.56-0.84 7.03-3.19L7.03-3.19L8.16-3.19Q7.64 0.05 4.36 0.14L4.36 0.14Q0.61 0 0.52-4.31L0.52-4.31Q0.70-8.63 4.55-8.81L4.55-8.81Q7.59-8.72 8.06-6.05ZM15.19-3.19L15.19-8.58L16.36-8.58L16.36-3.05Q16.22 0.05 12.84 0.14L12.84 0.14Q9.70 0.05 9.56-2.86L9.56-2.86L9.56-8.58L10.73-8.58L10.73-3.19Q10.78-0.84 12.89-0.80L12.89-0.80Q15.19-0.84 15.19-3.19L15.19-3.19ZM18.33-8.58L19.50-8.58L19.50 0L18.33 0L18.33-8.58ZM22.88-8.58L27.19-1.64L27.19-8.58L28.31-8.58L28.31 0L27 0L22.64-6.94L22.59-6.94L22.59 0L21.47 0L21.47-8.58L22.88-8.58ZM31.50-8.58L35.81-1.64L35.81-8.58L36.94-8.58L36.94 0L35.63 0L31.27-6.94L31.22-6.94L31.22 0L30.09 0L30.09-8.58L31.50-8.58ZM44.25-3.89L40.03-3.89L40.03 0L38.86 0L38.86-8.58L44.81-8.58L44.81-7.59L40.03-7.59L40.03-4.92L44.25-4.92L44.25-3.89ZM51.66 0L50.81-2.48L47.34-2.48L46.45 0L45.28 0L48.52-8.58L49.83-8.58L52.92 0L51.66 0ZM49.08-7.31L47.72-3.52L50.39-3.52L49.13-7.31L49.08-7.31ZM55.36-8.58L59.67-1.64L59.67-8.58L60.80-8.58L60.80 0L59.48 0L55.13-6.94L55.08-6.94L55.08 0L53.95 0L53.95-8.58L55.36-8.58Z" transform="translate(-0.515625, 8.8125)"></path></g></g></g></g></g></g><defs v-gra="od"></defs></svg>